<svg width="20" height="20" viewBox="0 0 216 60" fill="none" xmlns="http://www.w3.org/2000/svg">
<path d="M75.5511 42.6865V38.7519C73.803 40.2282 71.8056 41.3805 69.6526 42.1548C67.4444 42.9496 65.1139 43.3511 62.7671 43.3411C59.9223 43.363 57.1041 42.7915 54.4926 41.663C51.9751 40.5934 49.6942 39.0362 47.7813 37.0811C45.8683 35.126 44.3613 32.8116 43.3469 30.2714C42.246 27.5805 41.6892 24.6982 41.7086 21.7908C41.6866 18.8962 42.2436 16.0264 43.3469 13.3502C44.3822 10.8164 45.8989 8.50747 47.8132 6.55113C49.7453 4.60513 52.0421 3.05921 54.5723 2.00181C59.3338 -0.00457895 64.6598 -0.22291 69.5695 1.38704C71.6799 2.08762 73.6695 3.10988 75.468 4.4177V0.978293H83.6627V42.6865H75.5511ZM49.7406 21.7111C49.7406 25.8051 51.1064 29.2457 53.8379 32.0326C56.5695 34.8196 59.9292 36.2131 63.9169 36.2131C66.1555 36.2357 68.3741 35.7897 70.4302 34.9038C72.3669 34.0713 74.0894 32.81 75.468 31.2152V12.2735C74.0602 10.7139 72.3267 9.48301 70.3903 8.66794C68.346 7.78911 66.1421 7.34222 63.9169 7.35532C59.9292 7.35532 56.5695 8.72111 53.8379 11.4527C51.1064 14.1843 49.7406 17.6037 49.7406 21.7111Z" fill="white"/>
<path d="M90.4653 59.6502V0.977653H98.577V4.99196C100.271 3.46341 102.248 2.28041 104.396 1.50935C109.358 -0.231052 114.792 -0.0556538 119.632 2.00117C124.702 4.16119 128.709 8.24167 130.778 13.3495C131.881 16.0258 132.438 18.8956 132.416 21.7902C132.435 24.6975 131.879 27.5798 130.778 30.2707C129.191 34.1553 126.479 37.4761 122.988 39.8054C119.498 42.1347 115.391 43.3659 111.195 43.3405C108.926 43.3443 106.671 42.9853 104.515 42.2771C102.409 41.5939 100.43 40.5689 98.6568 39.2431V59.6502H90.4653ZM110.294 7.45105C108.043 7.43251 105.812 7.87822 103.741 8.76035C101.788 9.58546 100.05 10.8473 98.6601 12.449V31.3142C100.037 32.891 101.761 34.1255 103.698 34.9197C105.785 35.8007 108.029 36.2462 110.294 36.229C114.282 36.229 117.628 34.8633 120.333 32.1317C123.038 29.4001 124.391 25.9862 124.391 21.8899C124.391 17.7936 123.025 14.3653 120.293 11.6049C119.002 10.2621 117.447 9.20011 115.727 8.48538C114.006 7.77065 112.157 7.41853 110.294 7.45105Z" fill="white"/>
<path d="M137.335 59.6509V0.978292H145.447V4.9926C147.141 3.46336 149.117 2.28027 151.265 1.50999C156.229 -0.231274 161.664 -0.0558704 166.505 2.00181C171.575 4.16183 175.582 8.24231 177.651 13.3502C178.754 16.0264 179.311 18.8962 179.289 21.7908C179.308 24.6982 178.752 27.5805 177.651 30.2714C176.064 34.1565 173.351 37.4777 169.86 39.807C166.369 42.1364 162.261 43.3673 158.064 43.3411C155.797 43.3449 153.543 42.9859 151.388 42.2777C149.282 41.5952 147.303 40.5702 145.53 39.2437V59.6509H137.335ZM157.18 7.45169C154.928 7.43317 152.696 7.87886 150.624 8.76099C148.672 9.58623 146.935 10.8481 145.546 12.4496V31.3148C146.92 32.8835 148.639 34.112 150.568 34.9038C152.659 35.7875 154.91 36.2331 157.18 36.2131C161.168 36.2131 164.515 34.8473 167.22 32.1157C169.925 29.3841 171.276 25.9702 171.274 21.8739C171.274 17.7777 169.908 14.3493 167.176 11.5889C165.884 10.2489 164.33 9.1898 162.61 8.47792C160.89 7.76605 159.042 7.41669 157.18 7.45169Z" fill="white"/>
<path d="M180.273 37.2957L184.696 31.8858C186.729 33.4906 188.977 34.8006 191.376 35.7771C193.577 36.667 195.928 37.1261 198.301 37.1296C201.25 37.1296 203.654 36.5569 205.512 35.4116C207.371 34.2662 208.299 32.7631 208.297 30.9021C208.321 30.2274 208.185 29.5566 207.9 28.9445C207.616 28.3323 207.19 27.7961 206.659 27.3796C205.567 26.5068 203.873 25.9053 201.578 25.5752L194.038 24.5118C189.941 23.9092 186.84 22.6387 184.733 20.7002C182.626 18.7617 181.574 16.1808 181.576 12.9574C181.576 9.19123 183.078 6.14506 186.082 3.81889C189.086 1.49272 193.02 0.33185 197.883 0.336281C200.843 0.321814 203.787 0.764577 206.612 1.64891C209.486 2.58197 212.206 3.93468 214.684 5.6632L210.51 11.0433C208.45 9.62954 206.201 8.511 203.831 7.7202C201.725 7.04655 199.528 6.70134 197.318 6.69669C194.803 6.69669 192.782 7.21509 191.253 8.2519C189.724 9.2887 188.959 10.6622 188.957 12.3725C188.957 13.9034 189.489 15.0642 190.555 15.8551C191.621 16.646 193.383 17.2342 195.842 17.6197L203.372 18.6864C207.466 19.2868 210.593 20.5706 212.753 22.5379C214.913 24.5052 215.996 27.0983 216 30.3172C216.009 32.1389 215.543 33.9314 214.648 35.5179C213.731 37.1481 212.473 38.5606 210.959 39.6585C209.277 40.8676 207.409 41.7947 205.429 42.4033C203.202 43.0996 200.88 43.4449 198.547 43.4269C195.109 43.4531 191.689 42.9268 188.418 41.8683C185.421 40.9121 182.65 39.3564 180.273 37.2957Z" fill="white"/>
<path d="M8.19476 9.17578H0V42.6892H8.19476V9.17578Z" fill="white"/>
<path d="M28.8455 0.976562H16.3906C14.2172 0.976562 12.1328 1.83994 10.596 3.37675C9.05917 4.91357 8.1958 6.99794 8.1958 9.17132H28.8455V42.6847H37.0403V0.976562H28.8455Z" fill="white"/>
</svg>
