<svg width="1438" height="723" viewBox="0 0 1438 723" fill="none" xmlns="http://www.w3.org/2000/svg">
<rect width="1438" height="723" rx="20" fill="#263238"/>
<rect x="0.339546" y="-0.620248" width="4.11824" height="4.11822" rx="0.5" transform="matrix(0.959795 -0.280701 -0.280704 -0.959794 585.62 156.048)" stroke="white"/>
<rect x="0.339547" y="-0.620249" width="4.11822" height="4.11823" rx="0.5" transform="matrix(0.959795 -0.280703 -0.280701 -0.959795 352.292 123.864)" stroke="white"/>
<rect x="0.525038" y="-0.473641" width="5.85009" height="5.85007" rx="0.5" transform="matrix(0.998678 0.0513967 0.051397 -0.998678 878.383 219.804)" stroke="white"/>
<rect x="0.261943" y="-0.656801" width="3.79945" height="3.79946" rx="0.5" transform="matrix(0.918742 -0.394859 -0.394856 -0.918743 842.551 246.062)" stroke="white"/>
<rect x="0.638817" y="-0.303172" width="21.8572" height="21.8572" rx="4.5" transform="matrix(0.941989 0.335644 0.335645 -0.941989 738.299 557.752)" stroke="white"/>
<rect x="0.638816" y="-0.303172" width="71.2161" height="71.2162" rx="4.5" transform="matrix(0.941989 0.335644 0.335644 -0.941989 408.965 604.689)" stroke="white"/>
<rect x="0.40176" y="-0.581884" width="56.7836" height="56.7836" rx="4.5" transform="matrix(0.983644 -0.180123 -0.180123 -0.983644 232.625 473.133)" stroke="white"/>
<rect x="0.637364" y="-0.30622" width="2.46646" height="2.46643" rx="0.5" transform="matrix(0.943582 0.33114 0.331146 -0.94358 664.933 290.549)" stroke="white"/>
<rect x="0.637362" y="-0.306219" width="72.5426" height="72.5427" rx="4.5" transform="matrix(0.943581 0.331143 0.331143 -0.943581 1055.11 504.788)" stroke="white"/>
<rect x="0.40407" y="-0.580281" width="3.74679" height="3.74674" rx="0.5" transform="matrix(0.984353 -0.17621 -0.176213 -0.984352 896.833 122.642)" stroke="white"/>
<rect x="0.0767017" y="-0.702938" width="3.74672" height="3.74673" rx="0.5" transform="matrix(0.779633 -0.626237 -0.626229 -0.779639 745.087 109)" stroke="white"/>
<rect x="0.40176" y="-0.581884" width="38.085" height="38.0851" rx="4.5" transform="matrix(0.983644 -0.180123 -0.180123 -0.983644 153.08 288.684)" stroke="white"/>
<rect x="0.40176" y="-0.581884" width="89.5289" height="89.5289" rx="4.5" transform="matrix(0.983644 -0.180123 -0.180123 -0.983644 33.2079 639.637)" stroke="white"/>
<rect x="0.40176" y="-0.581884" width="7.2943" height="7.2943" rx="0.5" transform="matrix(0.983644 -0.180123 -0.180123 -0.983644 139.114 62.7619)" stroke="white"/>
<rect x="0.339546" y="-0.620247" width="4.11827" height="4.11823" rx="0.5" transform="matrix(0.959796 -0.2807 -0.280705 -0.959794 1305.32 172.876)" stroke="white"/>
<rect x="0.40176" y="-0.581883" width="7.29434" height="7.29432" rx="0.5" transform="matrix(0.983644 -0.180123 -0.180124 -0.983644 1337.21 124.481)" stroke="white"/>
<rect x="0.638817" y="-0.303172" width="48.8236" height="48.8236" rx="4.5" transform="matrix(0.941989 0.335644 0.335645 -0.941989 1188.1 338.888)" stroke="white"/>
<rect x="0.40176" y="-0.581883" width="7.29434" height="7.2943" rx="0.5" transform="matrix(0.983644 -0.180123 -0.180124 -0.983644 1081.25 70.0236)" stroke="white"/>
<rect x="0.40176" y="-0.581884" width="69.3941" height="69.3939" rx="4.5" transform="matrix(0.983644 -0.180123 -0.180124 -0.983644 1352.66 690.012)" stroke="white"/>
<rect x="0.0767018" y="-0.702938" width="3.74672" height="3.74673" rx="0.5" transform="matrix(0.779632 -0.626238 -0.626229 -0.779639 1131.42 138.625)" stroke="white"/>
<rect x="0.0767013" y="-0.702935" width="6.02209" height="6.0221" rx="0.5" transform="matrix(0.779636 -0.626234 -0.626233 -0.779636 667.416 39.6682)" stroke="white"/>
<rect x="0.181314" y="-0.683465" width="3.74675" height="3.74674" rx="0.5" transform="matrix(0.86478 -0.50215 -0.502153 -0.864779 823.242 146.625)" stroke="white"/>
</svg>
